<svg width="64" height="64" viewBox="0 0 64 64" fill="none" xmlns="http://www.w3.org/2000/svg">
<g id="arrow-left-long 1" clip-path="url(#clip0_4_175)">
<g id="Group">
<g id="Group_2">
<path id="Vector" d="M62.825 34.825C64.3875 33.2625 64.3875 30.725 62.825 29.1625L46.825 13.1625C45.2625 11.6 42.725 11.6 41.1625 13.1625C39.6 14.725 39.6 17.2625 41.1625 18.825L50.3375 28L4.00001 28C1.78751 28 1.14441e-05 29.7875 1.14441e-05 32C1.14441e-05 34.2125 1.78751 36 4.00001 36L50.3375 36L41.1625 45.175C39.6 46.7375 39.6 49.275 41.1625 50.8375C42.725 52.4 45.2625 52.4 46.825 50.8375L62.825 34.8375V34.825Z" fill="#050D19"/>
</g>
</g>
</g>
<defs>
<clipPath id="clip0_4_175">
<rect width="64" height="64" fill="white" transform="matrix(-1 0 0 -1 64 64)"/>
</clipPath>
</defs>
</svg>
