<svg width="48" height="56" viewBox="0 0 48 56" fill="none" xmlns="http://www.w3.org/2000/svg">
<g id="plus 1">
<g id="Group">
<g id="Group_2">
<path id="Vector" d="M27.4286 9.14284C27.4286 7.24641 25.8964 5.71426 24 5.71426C22.1036 5.71426 20.5714 7.24641 20.5714 9.14284V24.5714H5.14287C3.24644 24.5714 1.71429 26.1035 1.71429 28C1.71429 29.8964 3.24644 31.4286 5.14287 31.4286H20.5714V46.8571C20.5714 48.7536 22.1036 50.2857 24 50.2857C25.8964 50.2857 27.4286 48.7536 27.4286 46.8571V31.4286H42.8571C44.7536 31.4286 46.2857 29.8964 46.2857 28C46.2857 26.1035 44.7536 24.5714 42.8571 24.5714H27.4286V9.14284Z" fill="#050D19" fill-opacity="0.75"/>
</g>
</g>
</g>
</svg>
